$ pyNastran : punch=True
$ Simple Aircraft Model for Inertial Relief Demo
$ Units: SI (meters, Newtons, kg)
GRID,1,,0.0,0.0,0.0
GRID,2,,1.0,0.0,0.0
GRID,3,,2.0,0.0,0.0
GRID,4,,3.0,0.0,0.0
GRID,5,,4.0,0.0,0.0
GRID,6,,5.0,0.0,0.0
GRID,7,,6.0,0.0,0.0
GRID,8,,7.0,0.0,0.0
GRID,9,,8.0,0.0,0.0
GRID,10,,9.0,0.0,0.0
GRID,11,,10.0,0.0,0.0
GRID,12,,11.0,0.0,0.0
GRID,13,,12.0,0.0,0.0
GRID,14,,13.0,0.0,0.0
GRID,15,,14.0,0.0,0.0
GRID,16,,15.0,0.0,0.0
GRID,17,,16.0,0.0,0.0
GRID,18,,17.0,0.0,0.0
GRID,19,,18.0,0.0,0.0
GRID,20,,19.0,0.0,0.0
GRID,21,,20.0,0.0,0.0
GRID,22,,8.0,-1.3636363636363635,0.0
GRID,23,,9.5,-1.3636363636363635,0.0
GRID,24,,11.0,-1.3636363636363635,0.0
GRID,25,,8.0,-2.727272727272727,0.0
GRID,26,,9.5,-2.727272727272727,0.0
GRID,27,,11.0,-2.727272727272727,0.0
GRID,28,,8.0,-4.090909090909091,0.0
GRID,29,,9.5,-4.090909090909091,0.0
GRID,30,,11.0,-4.090909090909091,0.0
GRID,31,,8.0,-5.454545454545454,0.0
GRID,32,,9.5,-5.454545454545454,0.0
GRID,33,,11.0,-5.454545454545454,0.0
GRID,34,,8.0,-6.818181818181818,0.0
GRID,35,,9.5,-6.818181818181818,0.0
GRID,36,,11.0,-6.818181818181818,0.0
GRID,37,,8.0,-8.181818181818182,0.0
GRID,38,,9.5,-8.181818181818182,0.0
GRID,39,,11.0,-8.181818181818182,0.0
GRID,40,,8.0,-9.545454545454545,0.0
GRID,41,,9.5,-9.545454545454545,0.0
GRID,42,,11.0,-9.545454545454545,0.0
GRID,43,,8.0,-10.909090909090908,0.0
GRID,44,,9.5,-10.909090909090908,0.0
GRID,45,,11.0,-10.909090909090908,0.0
GRID,46,,8.0,-12.272727272727273,0.0
GRID,47,,9.5,-12.272727272727273,0.0
GRID,48,,11.0,-12.272727272727273,0.0
GRID,49,,8.0,-13.636363636363637,0.0
GRID,50,,9.5,-13.636363636363637,0.0
GRID,51,,11.0,-13.636363636363637,0.0
GRID,52,,8.0,-15.0,0.0
GRID,53,,9.5,-15.0,0.0
GRID,54,,11.0,-15.0,0.0
GRID,55,,8.0,1.3636363636363635,0.0
GRID,56,,9.5,1.3636363636363635,0.0
GRID,57,,11.0,1.3636363636363635,0.0
GRID,58,,8.0,2.727272727272727,0.0
GRID,59,,9.5,2.727272727272727,0.0
GRID,60,,11.0,2.727272727272727,0.0
GRID,61,,8.0,4.090909090909091,0.0
GRID,62,,9.5,4.090909090909091,0.0
GRID,63,,11.0,4.090909090909091,0.0
GRID,64,,8.0,5.454545454545454,0.0
GRID,65,,9.5,5.454545454545454,0.0
GRID,66,,11.0,5.454545454545454,0.0
GRID,67,,8.0,6.818181818181818,0.0
GRID,68,,9.5,6.818181818181818,0.0
GRID,69,,11.0,6.818181818181818,0.0
GRID,70,,8.0,8.181818181818182,0.0
GRID,71,,9.5,8.181818181818182,0.0
GRID,72,,11.0,8.181818181818182,0.0
GRID,73,,8.0,9.545454545454545,0.0
GRID,74,,9.5,9.545454545454545,0.0
GRID,75,,11.0,9.545454545454545,0.0
GRID,76,,8.0,10.909090909090908,0.0
GRID,77,,9.5,10.909090909090908,0.0
GRID,78,,11.0,10.909090909090908,0.0
GRID,79,,8.0,12.272727272727273,0.0
GRID,80,,9.5,12.272727272727273,0.0
GRID,81,,11.0,12.272727272727273,0.0
GRID,82,,8.0,13.636363636363637,0.0
GRID,83,,9.5,13.636363636363637,0.0
GRID,84,,11.0,13.636363636363637,0.0
GRID,85,,8.0,15.0,0.0
GRID,86,,9.5,15.0,0.0
GRID,87,,11.0,15.0,0.0
$
$ Material Properties
$
MAT1,1,7.000e+10,,0.3,2700.0
$
$ Shell Property for Wings
$
PSHELL,1,1,0.01,1,,1
PSHELL,2,1,0.005,1,,1
$
$ Left Wing Elements
$
CQUAD4,1,1,22,23,26,25
CQUAD4,2,1,23,24,27,26
CQUAD4,3,1,25,26,29,28
CQUAD4,4,1,26,27,30,29
CQUAD4,5,1,28,29,32,31
CQUAD4,6,1,29,30,33,32
CQUAD4,7,1,31,32,35,34
CQUAD4,8,1,32,33,36,35
CQUAD4,9,1,34,35,38,37
CQUAD4,10,1,35,36,39,38
CQUAD4,11,1,37,38,41,40
CQUAD4,12,1,38,39,42,41
CQUAD4,13,1,40,41,44,43
CQUAD4,14,1,41,42,45,44
CQUAD4,15,1,43,44,47,46
CQUAD4,16,1,44,45,48,47
CQUAD4,17,1,46,47,50,49
CQUAD4,18,1,47,48,51,50
CQUAD4,19,1,49,50,53,52
CQUAD4,20,1,50,51,54,53
$
$ Right Wing Elements
$
CQUAD4,21,1,55,56,59,58
CQUAD4,22,1,56,57,60,59
CQUAD4,23,1,58,59,62,61
CQUAD4,24,1,59,60,63,62
CQUAD4,25,1,61,62,65,64
CQUAD4,26,1,62,63,66,65
CQUAD4,27,1,64,65,68,67
CQUAD4,28,1,65,66,69,68
CQUAD4,29,1,67,68,71,70
CQUAD4,30,1,68,69,72,71
CQUAD4,31,1,70,71,74,73
CQUAD4,32,1,71,72,75,74
CQUAD4,33,1,73,74,77,76
CQUAD4,34,1,74,75,78,77
CQUAD4,35,1,76,77,80,79
CQUAD4,36,1,77,78,81,80
CQUAD4,37,1,79,80,83,82
CQUAD4,38,1,80,81,84,83
CQUAD4,39,1,82,83,86,85
CQUAD4,40,1,83,84,87,86
$
$ Fuselage Elements (simplified)
$
GRID,88,,0.0,0.0,0.75
GRID,89,,0.0,0.0,-0.75
GRID,90,,1.0,0.0,0.75
GRID,91,,1.0,0.0,-0.75
GRID,92,,2.0,0.0,0.75
GRID,93,,2.0,0.0,-0.75
GRID,94,,3.0,0.0,0.75
GRID,95,,3.0,0.0,-0.75
GRID,96,,4.0,0.0,0.75
GRID,97,,4.0,0.0,-0.75
GRID,98,,5.0,0.0,0.75
GRID,99,,5.0,0.0,-0.75
GRID,100,,6.0,0.0,0.75
GRID,101,,6.0,0.0,-0.75
GRID,102,,7.0,0.0,0.75
GRID,103,,7.0,0.0,-0.75
GRID,104,,8.0,0.0,0.75
GRID,105,,8.0,0.0,-0.75
GRID,106,,9.0,0.0,0.75
GRID,107,,9.0,0.0,-0.75
GRID,108,,10.0,0.0,0.75
GRID,109,,10.0,0.0,-0.75
GRID,110,,11.0,0.0,0.75
GRID,111,,11.0,0.0,-0.75
GRID,112,,12.0,0.0,0.75
GRID,113,,12.0,0.0,-0.75
GRID,114,,13.0,0.0,0.75
GRID,115,,13.0,0.0,-0.75
GRID,116,,14.0,0.0,0.75
GRID,117,,14.0,0.0,-0.75
GRID,118,,15.0,0.0,0.75
GRID,119,,15.0,0.0,-0.75
GRID,120,,16.0,0.0,0.75
GRID,121,,16.0,0.0,-0.75
GRID,122,,17.0,0.0,0.75
GRID,123,,17.0,0.0,-0.75
GRID,124,,18.0,0.0,0.75
GRID,125,,18.0,0.0,-0.75
GRID,126,,19.0,0.0,0.75
GRID,127,,19.0,0.0,-0.75
GRID,128,,20.0,0.0,0.75
GRID,129,,20.0,0.0,-0.75
CQUAD4,41,2,88,90,2,1
CQUAD4,42,2,1,2,91,89
CQUAD4,43,2,90,92,3,2
CQUAD4,44,2,2,3,93,91
CQUAD4,45,2,92,94,4,3
CQUAD4,46,2,3,4,95,93
CQUAD4,47,2,94,96,5,4
CQUAD4,48,2,4,5,97,95
CQUAD4,49,2,96,98,6,5
CQUAD4,50,2,5,6,99,97
CQUAD4,51,2,98,100,7,6
CQUAD4,52,2,6,7,101,99
CQUAD4,53,2,100,102,8,7
CQUAD4,54,2,7,8,103,101
CQUAD4,55,2,102,104,9,8
CQUAD4,56,2,8,9,105,103
CQUAD4,57,2,104,106,10,9
CQUAD4,58,2,9,10,107,105
CQUAD4,59,2,106,108,11,10
CQUAD4,60,2,10,11,109,107
CQUAD4,61,2,108,110,12,11
CQUAD4,62,2,11,12,111,109
CQUAD4,63,2,110,112,13,12
CQUAD4,64,2,12,13,113,111
CQUAD4,65,2,112,114,14,13
CQUAD4,66,2,13,14,115,113
CQUAD4,67,2,114,116,15,14
CQUAD4,68,2,14,15,117,115
CQUAD4,69,2,116,118,16,15
CQUAD4,70,2,15,16,119,117
CQUAD4,71,2,118,120,17,16
CQUAD4,72,2,16,17,121,119
CQUAD4,73,2,120,122,18,17
CQUAD4,74,2,17,18,123,121
CQUAD4,75,2,122,124,19,18
CQUAD4,76,2,18,19,125,123
CQUAD4,77,2,124,126,20,19
CQUAD4,78,2,19,20,127,125
CQUAD4,79,2,126,128,21,20
CQUAD4,80,2,20,21,129,127
$
$ Wing-Fuselage Connections
$
RBE2,81,9,123456,22,23,24
RBE2,82,9,123456,55,56,57
$
$ Minimal Constraints for Solver Stability
$
SPC1,1,123456,1
SPC1,1,2,21
